<?xml version="1.0" encoding="UTF-8" standalone="no"?>
<!-- Generator: Adobe Illustrator 19.0.0, SVG Export Plug-In . SVG Version: 6.00 Build 0)  -->

<svg
   version="1.1"
   id="Layer_1"
   x="0px"
   y="0px"
   viewBox="0 0 239.04 239.04"
   style="enable-background:new 0 0 239.04 239.04;"
   xml:space="preserve"
   sodipodi:docname="instagram.svg"
   inkscape:version="1.1 (c68e22c387, 2021-05-23)"
   xmlns:inkscape="http://www.inkscape.org/namespaces/inkscape"
   xmlns:sodipodi="http://sodipodi.sourceforge.net/DTD/sodipodi-0.dtd"
   xmlns="http://www.w3.org/2000/svg"
   xmlns:svg="http://www.w3.org/2000/svg"><defs
   id="defs47">
	
	
	
	
	
</defs><sodipodi:namedview
   id="namedview45"
   pagecolor="#ffffff"
   bordercolor="#666666"
   borderopacity="1.0"
   inkscape:pageshadow="2"
   inkscape:pageopacity="0.0"
   inkscape:pagecheckerboard="0"
   showgrid="false"
   inkscape:zoom="3.4805891"
   inkscape:cx="119.37634"
   inkscape:cy="119.66365"
   inkscape:window-width="1920"
   inkscape:window-height="1017"
   inkscape:window-x="-8"
   inkscape:window-y="-8"
   inkscape:window-maximized="1"
   inkscape:current-layer="Layer_1" />
<g
   id="g1033"
   style="fill:#ffffff"
   transform="matrix(1.4162939,0,0,1.4162939,-49.50147,-49.231793)"><path
     id="path4"
     d="m 113.64648,45.107422 c -30.153439,-0.117656 -62.871402,5.358281 -63.128902,30.222656 -0.229,0.321 -0.365031,0.687406 -0.457031,1.191406 -3.025,26.583996 -4.996297,61.877036 1.970703,87.957036 4.4,16.5 16.866484,21.26659 32.771484,23.55859 23.787996,3.483 58.164136,6.09776 81.494146,-1.74023 17.73799,-5.958 20.80809,-19.25146 21.49609,-36.43946 1.238,-31.259 14.29992,-95.747561 -30.20508,-101.476561 -8.68012,-1.117125 -25.84934,-3.202843 -43.94141,-3.273437 z m 50.50196,16.382812 c 6.1098,-0.02356 11.97053,3.9475 11.91015,11.136719 -0.092,8.25 -10.72507,14.896391 -17.83007,9.900391 -3.025,-2.2 -5.36271,-6.051266 -6.09571,-9.947266 0.137,-3.025 1.05439,-5.819344 3.02539,-7.652344 2.52107,-2.316187 5.78986,-3.425161 8.99024,-3.4375 z m -44.65625,13.029297 c 14.04403,0.235715 27.93437,6.806985 36.26172,19.419922 12.742,19.295997 7.60956,44.917667 -9.89844,59.263667 -19.618,16.042 -46.935923,9.6256 -62.794923,-8.0664 -0.459,-0.55 -0.961719,-0.87169 -1.511719,-1.05469 -9.763,-16.959 -8.846,-40.83759 4.125,-55.183592 8.916094,-9.861564 21.426562,-14.586891 33.818362,-14.378907 z"
     style="fill:#ffffff" /><path
     d="m 93.282,126.483 c 5.546,15.584 25.255,27.959 40.976,18.334 31.763,-19.434 -5.546,-72.235 -31.718,-48.814 -9.258,5.454 -12.879,20.258 -9.258,30.48 z"
     id="path10"
     style="fill:#ffffff" /></g>
<g
   id="g14">
</g>
<g
   id="g16">
</g>
<g
   id="g18">
</g>
<g
   id="g20">
</g>
<g
   id="g22">
</g>
<g
   id="g24">
</g>
<g
   id="g26">
</g>
<g
   id="g28">
</g>
<g
   id="g30">
</g>
<g
   id="g32">
</g>
<g
   id="g34">
</g>
<g
   id="g36">
</g>
<g
   id="g38">
</g>
<g
   id="g40">
</g>
<g
   id="g42">
</g>
</svg>
