<svg width="207.69mm" height="146.53mm" version="1.1" viewBox="0 0 207.69 146.53" >
 <g transform="translate(-1.9638 -74.906)">
  <g transform="translate(4.2095 -175.5)">
   <g style="fill:#fff">
    <path d="m54.848 250.41a39.015 39.015 0 0 0-39.015 39.015 39.015 39.015 0 0 0 8.0848 23.746 19.274 19.274 0 0 1 0.59014-1.6779 19.274 19.274 0 0 1 8.2331-9.3798 25.517 25.517 0 0 1-3.4096-12.688 25.517 25.517 0 0 1 25.517-25.516 25.517 25.517 0 0 1 25.517 25.516 25.517 25.517 0 0 1-4.9134 15.052l12.021 6.3076a39.015 39.015 0 0 0 6.3903-21.359 39.015 39.015 0 0 0-39.015-39.015zm5.6456 74.866a19.274 19.274 0 0 1-0.3328 0.87178 19.274 19.274 0 0 1-0.99271 2.0314 39.015 39.015 0 0 0 5.1098-0.91778z" style="fill:#fff;stroke-width:.65103"/>
    <path d="m42.742 293.31a25.517 25.517 0 0 0-24.009 15.812 25.517 25.517 0 0 0 13.9 33.301 25.517 25.517 0 0 0 33.302-13.899 25.517 25.517 0 0 0-13.9-33.302 25.517 25.517 0 0 0-9.293-1.9125zm-0.09974 6.242a19.274 19.274 0 0 1 7.0192 1.4449 19.274 19.274 0 0 1 10.499 25.154 19.274 19.274 0 0 1-25.154 10.499 19.274 19.274 0 0 1-10.499-25.154 19.274 19.274 0 0 1 18.135-11.944z" style="fill:#fff;stroke-width:.42579"/>
    <g transform="matrix(.30746 .12638 -.12638 .30746 -49.075 263.32)" style="fill:#fff">
     <circle cx="294.02" cy="25.905" r="11.352" style="fill:#fff;stroke-width:.18943"/>
     <circle cx="339" cy="25.257" r="11.352" style="fill:#fff;stroke-width:.18943"/>
    </g>
    <path d="m20.019 325.6a18.189 18.189 0 0 1 21.592-6.1493 18.189 18.189 0 0 1 11.026 19.556l-4.2418-1.7436a13.738 13.738 0 0 0-8.4758-13.697 13.738 13.738 0 0 0-15.658 3.7769z" style="fill:#fff;stroke-width:.30351"/>
    <path transform="matrix(-.13642 -.061303 .030651 -.068209 3.6739 268.92)" d="m-695.97 42.044 110.98-192.22 110.98 192.22-110.98-2e-6z" style="fill:#fff"/>
    <path d="m66.004 392.09a40.032 40.032 0 0 0 16.081-54.282 40.032 40.032 0 0 0-18.916-17.455 19.776 19.776 0 0 1 0.28931 1.802 19.776 19.776 0 0 1-2.8321 12.489 26.182 26.182 0 0 1 9.2864 9.7723 26.182 26.182 0 0 1-10.518 35.502 26.182 26.182 0 0 1-35.502-10.517 26.182 26.182 0 0 1-2.9383-15.978l-13.928 0.19726a40.032 40.032 0 0 0 4.6945 22.389 40.032 40.032 0 0 0 54.282 16.081zm-41.743-64.746a19.776 19.776 0 0 1-0.1267-0.94906 19.776 19.776 0 0 1-0.09934-2.3178 40.032 40.032 0 0 0-4.1584 3.3292z" style="fill:#fff;stroke-width:.668"/>
    <path transform="matrix(.14779 .041339 -.020669 .073893 101.48 378.37)" d="m-695.97 42.044 110.98-192.22 110.98 192.22-110.98-2e-6z" style="fill:#fff"/>
    <text x="106.86475" y="337.56256" style="fill:#ffffff;font-family:'Enchanted Land';font-size:79.704px;line-height:1.25;stroke-width:.95998" xml:space="preserve"><tspan x="106.86475" y="337.56256" style="fill:#ffffff;font-family:Impact;stroke-width:.95998">A D </tspan></text>
    <path d="m104.44 346.18-3.93 34.27h94.367l3.93-34.27zm12.867 5.7805c3.773 0 6.3726 1.6017 7.7985 4.8044l-3.685 1.3653c-0.78971-1.8646-2.2158-2.7967-4.2778-2.7967-1.2504 0-2.2265 0.29604-2.9285 0.88832-0.69099 0.58132-1.0366 1.305-1.0366 2.1714 0 0.66905 0.23582 1.2176 0.70745 1.6454 0.47164 0.4168 1.2504 0.77862 2.3363 1.0857l3.0768 0.90485c0.88842 0.25227 1.733 0.65255 2.5337 1.201 0.80068 0.54841 1.3983 1.2341 1.7932 2.0567 0.39485 0.82262 0.59221 1.689 0.59221 2.5993 0 2.0401-0.76212 3.8118-2.2867 5.3144-1.5136 1.4917-3.7296 2.2376-6.6471 2.2376-4.5189 0-7.4474-1.8648-8.7855-5.594l3.669-1.2997c0.88842 2.3472 2.6763 3.5207 5.3635 3.5207 1.5356 0 2.6762-0.35121 3.422-1.0532 0.74584-0.71293 1.1188-1.5191 1.1188-2.4184 0-0.51551-0.14271-0.95931-0.42788-1.3322-0.2742-0.38389-0.62489-0.67489-1.0526-0.8723-0.42776-0.19743-1.2835-0.47675-2.5668-0.83871-1.7878-0.5155-3.1258-1.0038-4.0142-1.4645-0.87745-0.46066-1.596-1.1297-2.1554-2.0071-0.54841-0.87745-0.82269-1.9194-0.82269-3.1259 0-2.051 0.74036-3.7291 2.221-5.0343 1.4807-1.3052 3.4988-1.958 6.0544-1.958zm10.447 0.54312h15.547l-0.59221 3.5207h-5.7092l-3.175 18.936h-4.1295l3.175-18.936h-5.7087zm21.174 0h4.9852l4.1129 22.457h-4.4912l-0.92139-5.4291h-8.1442l-2.5006 5.4291h-3.8003zm11.204 0h15.547l-0.59222 3.5207h-5.7087l-3.1755 18.936h-4.1295l3.1755-18.936h-5.7092zm17.999 0h14.198l-0.59221 3.5207h-10.167l-0.971 5.8239h8.4238l-0.55914 3.3233h-8.4238l-1.0532 6.2684h10.579l-0.59221 3.5207h-14.593zm-27.656 3.9321-4.623 9.9699h6.3831z" style="fill:#fff;stroke-width:.38455"/>
   </g>
  </g>
 </g>
</svg>
