<?xml version="1.0" encoding="UTF-8" standalone="no"?>
<!-- Generator: Adobe Illustrator 19.1.0, SVG Export Plug-In . SVG Version: 6.00 Build 0)  -->

<svg
   version="1.1"
   id="Capa_1"
   x="0px"
   y="0px"
   viewBox="0 0 489.4 489.4"
   style="enable-background:new 0 0 489.4 489.4;"
   xml:space="preserve"
   sodipodi:docname="shop.svg"
   inkscape:version="1.1 (c68e22c387, 2021-05-23)"
   xmlns:inkscape="http://www.inkscape.org/namespaces/inkscape"
   xmlns:sodipodi="http://sodipodi.sourceforge.net/DTD/sodipodi-0.dtd"
   xmlns="http://www.w3.org/2000/svg"
   xmlns:svg="http://www.w3.org/2000/svg"><defs
   id="defs39">
	
</defs><sodipodi:namedview
   id="namedview37"
   pagecolor="#ffffff"
   bordercolor="#666666"
   borderopacity="1.0"
   inkscape:pageshadow="2"
   inkscape:pageopacity="0.0"
   inkscape:pagecheckerboard="0"
   showgrid="false"
   inkscape:zoom="1.7000409"
   inkscape:cx="244.40589"
   inkscape:cy="244.40589"
   inkscape:window-width="1920"
   inkscape:window-height="1017"
   inkscape:window-x="-8"
   inkscape:window-y="-8"
   inkscape:window-maximized="1"
   inkscape:current-layer="Capa_1" />
<path
   d="M 349,120.8 V 104.3 C 349,46.8 302.2,0 244.7,0 187.2,0 140.4,46.8 140.4,104.3 v 16.5 H 64.6 v 302.8 c 0,36.3 29.5,65.8 65.8,65.8 H 359 c 36.3,0 65.8,-29.5 65.8,-65.8 V 120.8 Z m -182.9,76.8 c -12.2,0 -22.1,-9.9 -22.1,-22.1 0,-12.2 9.9,-22.1 22.1,-22.1 12.2,0 22.1,9.9 22.1,22.1 0,12.3 -9.9,22.1 -22.1,22.1 z M 300.9,120.8 H 188.5 v -16.5 c 0,-31 25.2,-56.2 56.2,-56.2 31,0 56.2,25.2 56.2,56.2 z m 22.4,76.8 c -12.2,0 -22.1,-9.9 -22.1,-22.1 0,-12.2 9.9,-22.1 22.1,-22.1 12.2,0 22.1,9.9 22.1,22.1 -0.1,12.3 -9.9,22.1 -22.1,22.1 z"
   id="path2"
   style="fill:#ffffff" />
<g
   id="g6">
</g>
<g
   id="g8">
</g>
<g
   id="g10">
</g>
<g
   id="g12">
</g>
<g
   id="g14">
</g>
<g
   id="g16">
</g>
<g
   id="g18">
</g>
<g
   id="g20">
</g>
<g
   id="g22">
</g>
<g
   id="g24">
</g>
<g
   id="g26">
</g>
<g
   id="g28">
</g>
<g
   id="g30">
</g>
<g
   id="g32">
</g>
<g
   id="g34">
</g>
</svg>
